<?xml version="1.0" standalone="no"?>
<!DOCTYPE svg PUBLIC "-//W3C//DTD SVG 20010904//EN"
 "http://www.w3.org/TR/2001/REC-SVG-20010904/DTD/svg10.dtd">
<svg version="1.0" xmlns="http://www.w3.org/2000/svg"
 width="240.000000pt" height="240.000000pt" viewBox="0 0 240.000000 240.000000"
 preserveAspectRatio="xMidYMid meet">

<g transform="translate(0.000000,240.000000) scale(0.100000,-0.100000)"
fill="#000000" stroke="none">
<path d="M1105 2165 c-138 -25 -245 -83 -334 -180 -102 -112 -151 -240 -151
-392 0 -110 15 -174 61 -267 32 -62 76 -126 89 -126 3 0 51 91 105 203 379
778 368 754 359 768 -7 12 -43 10 -129 -6z m51 -116 c-12 -29 -24 -37 -82 -57
-157 -55 -253 -166 -285 -330 -14 -72 -2 -167 30 -237 18 -39 18 -41 -1 -77
-10 -21 -22 -38 -27 -38 -17 0 -73 142 -83 210 -39 261 141 518 396 565 33 6
62 9 64 5 1 -4 -4 -22 -12 -41z"/>
<path d="M1428 1834 l-3 -286 -67 62 -67 61 -3 147 -3 147 -67 -160 c-36 -88
-74 -177 -82 -197 l-16 -38 84 0 85 0 3 30 3 29 79 -72 80 -73 -80 -62 c-43
-34 -82 -62 -86 -62 -5 0 -8 14 -8 30 l0 31 -112 -3 -112 -3 -73 -165 c-40
-90 -73 -166 -73 -168 0 -7 96 -45 145 -58 66 -18 226 -17 295 1 189 50 351
206 411 395 29 90 29 249 0 340 -26 82 -79 171 -139 234 -49 51 -155 126 -178
126 -11 0 -14 -56 -16 -286z m142 88 c105 -118 148 -303 106 -457 -60 -226
-294 -395 -514 -372 -67 7 -150 31 -176 50 -17 13 -18 15 -1 46 12 24 21 31
33 26 76 -31 108 -37 195 -33 84 3 101 7 169 41 90 44 143 99 191 196 29 61
32 74 32 166 0 124 -18 182 -86 271 -42 56 -49 72 -49 110 l0 45 29 -21 c16
-11 48 -42 71 -68z m-143 -609 c-3 -2 -35 -3 -71 -1 l-67 3 68 56 68 56 3 -54
c2 -31 1 -57 -1 -60z"/>
</g>
</svg>
